{
    "asset": {
        "version": "2.0",
        "generator": "Open Asset Import Library (assimp v5.4.0)"
    },
    "extensionsUsed": [
        "KHR_materials_volume",
        "FB_ngon_encoding"
    ],
    "accessors": [
        {
            "bufferView": 0,
            "byteOffset": 0,
            "componentType": 5126,
            "count": 249566,
            "type": "VEC3",
            "max": [
                0.9771360158920288,
                0.8029869794845581,
                0.5046859979629517
            ],
            "min": [
                -0.9996970295906067,
                -0.8072779774665833,
                -0.5073739886283875
            ]
        },
        {
            "bufferView": 1,
            "byteOffset": 0,
            "componentType": 5126,
            "count": 249566,
            "type": "VEC3",
            "max": [
                0.999962329864502,
                0.9999947547912598,
                1.0
            ],
            "min": [
                -0.999996542930603,
                -1.0,
                -0.9999878406524658
            ]
        },
        {
            "bufferView": 2,
            "byteOffset": 0,
            "componentType": 5126,
            "count": 249566,
            "type": "VEC2",
            "max": [
                0.9984570145606995,
                0.9993069767951965
            ],
            "min": [
                0.0006929999799467623,
                0.0006930232048034668
            ]
        },
        {
            "bufferView": 3,
            "byteOffset": 0,
            "componentType": 5125,
            "count": 1406031,
            "type": "SCALAR",
            "max": [
                249565
            ],
            "min": [
                0
            ]
        }
    ],
    "buffers": [
        {
            "byteLength": 13610236,
            "uri": "_A_large_smooth_and_1112024857_texture_0.bin"
        }
    ],
    "bufferViews": [
        {
            "buffer": 0,
            "byteOffset": 0,
            "byteLength": 2994792,
            "target": 34962
        },
        {
            "buffer": 0,
            "byteOffset": 2994792,
            "byteLength": 2994792,
            "target": 34962
        },
        {
            "buffer": 0,
            "byteOffset": 5989584,
            "byteLength": 1996528,
            "target": 34962
        },
        {
            "buffer": 0,
            "byteOffset": 7986112,
            "byteLength": 5624124,
            "target": 34963
        }
    ],
    "images": [
        {
            "uri": "textures/image_0.png"
        }
    ],
    "materials": [
        {
            "name": "Mat_1",
            "pbrMetallicRoughness": {
                "baseColorTexture": {
                    "index": 0
                },
                "metallicFactor": 0.0,
                "roughnessFactor": 0.800000011920929
            },
            "doubleSided": true
        }
    ],
    "meshes": [
        {
            "name": "meshes[0]",
            "primitives": [
                {
                    "mode": 4,
                    "material": 0,
                    "indices": 3,
                    "attributes": {
                        "POSITION": 0,
                        "NORMAL": 1,
                        "TEXCOORD_0": 2
                    }
                }
            ]
        }
    ],
    "nodes": [
        {
            "name": "_A_large_smooth_and_1112024857_texture",
            "children": [
                1
            ]
        },
        {
            "name": "mesh_0",
            "mesh": 0
        }
    ],
    "samplers": [
        {
            "magFilter": 9729,
            "minFilter": 9987
        }
    ],
    "scenes": [
        {
            "nodes": [
                0
            ]
        }
    ],
    "textures": [
        {
            "source": 0,
            "sampler": 0
        }
    ],
    "scene": 0
}