{
    "asset": {
        "version": "2.0",
        "generator": "Open Asset Import Library (assimp v5.4.0)"
    },
    "extensionsUsed": [
        "KHR_materials_volume",
        "FB_ngon_encoding"
    ],
    "accessors": [
        {
            "bufferView": 0,
            "byteOffset": 0,
            "componentType": 5126,
            "count": 338212,
            "type": "VEC3",
            "max": [
                1.0005639791488647,
                0.783312976360321,
                0.9254410266876221
            ],
            "min": [
                -1.0056970119476318,
                -0.7841330170631409,
                -0.9277660250663757
            ]
        },
        {
            "bufferView": 1,
            "byteOffset": 0,
            "componentType": 5126,
            "count": 338212,
            "type": "VEC3",
            "max": [
                0.9999938011169434,
                0.9999932050704956,
                0.9999018907546997
            ],
            "min": [
                -0.9999985694885254,
                -1.0,
                -0.999995231628418
            ]
        },
        {
            "bufferView": 2,
            "byteOffset": 0,
            "componentType": 5126,
            "count": 338212,
            "type": "VEC2",
            "max": [
                0.9980810284614563,
                0.9985330104827881
            ],
            "min": [
                0.0014669999945908785,
                0.001466989517211914
            ]
        },
        {
            "bufferView": 3,
            "byteOffset": 0,
            "componentType": 5125,
            "count": 1771287,
            "type": "SCALAR",
            "max": [
                338211
            ],
            "min": [
                0
            ]
        }
    ],
    "buffers": [
        {
            "byteLength": 17907932,
            "uri": "_A_dynamic_3D_scene_s_1112032854_texture_0.bin"
        }
    ],
    "bufferViews": [
        {
            "buffer": 0,
            "byteOffset": 0,
            "byteLength": 4058544,
            "target": 34962
        },
        {
            "buffer": 0,
            "byteOffset": 4058544,
            "byteLength": 4058544,
            "target": 34962
        },
        {
            "buffer": 0,
            "byteOffset": 8117088,
            "byteLength": 2705696,
            "target": 34962
        },
        {
            "buffer": 0,
            "byteOffset": 10822784,
            "byteLength": 7085148,
            "target": 34963
        }
    ],
    "images": [
        {
            "uri": "textures/image_0.png"
        }
    ],
    "materials": [
        {
            "name": "Mat_1",
            "pbrMetallicRoughness": {
                "baseColorTexture": {
                    "index": 0
                },
                "metallicFactor": 0.0,
                "roughnessFactor": 0.800000011920929
            },
            "doubleSided": true
        }
    ],
    "meshes": [
        {
            "name": "meshes[0]",
            "primitives": [
                {
                    "mode": 4,
                    "material": 0,
                    "indices": 3,
                    "attributes": {
                        "POSITION": 0,
                        "NORMAL": 1,
                        "TEXCOORD_0": 2
                    }
                }
            ]
        }
    ],
    "nodes": [
        {
            "name": "_A_dynamic_3D_scene_s_1112032854_texture",
            "children": [
                1
            ]
        },
        {
            "name": "mesh_0",
            "mesh": 0
        }
    ],
    "samplers": [
        {
            "magFilter": 9729,
            "minFilter": 9987
        }
    ],
    "scenes": [
        {
            "nodes": [
                0
            ]
        }
    ],
    "textures": [
        {
            "source": 0,
            "sampler": 0
        }
    ],
    "scene": 0
}